<svg xmlns="http://www.w3.org/2000/svg" width="81.666" height="76" viewBox="0 0 81.666 76"><defs><style>.a{fill:#6e6e6e;}</style></defs><g transform="translate(-966 -247)"><g transform="translate(480 -112)"><rect class="a" width="21" height="5" rx="2.5" transform="translate(486 367)"/><rect class="a" width="21" height="5" rx="2.5" transform="translate(499 359) rotate(90)"/></g><g transform="translate(969.883 256)"><path class="a" d="M.007,67.493A3.769,3.769,0,0,0,2.7,70.9L31.2,79.519,32.244,99.16a1.948,1.948,0,0,0,1.317,1.713,1.785,1.785,0,0,0,.635.111,1.928,1.928,0,0,0,1.46-.65L45.729,89.181l14.278,9.884a3.746,3.746,0,0,0,2.158.682A3.83,3.83,0,0,0,65.894,96.7L77.745,36.3a1.939,1.939,0,0,0-2.634-2.174L2.291,63.765A3.829,3.829,0,0,0,.007,67.493Zm35.855,26.8L35.211,81.9l7.3,5.045ZM62.1,95.8,36.115,77.806,72.557,42.554ZM68.559,41,32.53,75.854l-28.462-8.6Z" transform="translate(0 -33.985)"/></g></g></svg>