<svg xmlns="http://www.w3.org/2000/svg" width="71.474" height="70.486" viewBox="0 0 71.474 70.486"><defs><style>.a{fill:#6e6e6e;}</style></defs><g transform="translate(-402 -247)"><g transform="translate(412.987 257)"><path class="a" d="M51.628,39.1a30.127,30.127,0,0,0-11.493-7.209,17.484,17.484,0,1,0-19.785,0A30.291,30.291,0,0,0,0,60.486H4.725a25.518,25.518,0,1,1,51.035,0h4.725A30.046,30.046,0,0,0,51.628,39.1ZM30.243,30.243A12.759,12.759,0,1,1,43,17.484,12.773,12.773,0,0,1,30.243,30.243Z" transform="translate(0)"/></g><g transform="translate(-84 -112)"><rect class="a" width="21" height="5" rx="2.5" transform="translate(486 367)"/><rect class="a" width="21" height="5" rx="2.5" transform="translate(499 359) rotate(90)"/></g></g></svg>