<svg xmlns="http://www.w3.org/2000/svg" width="47.122" height="47.121" viewBox="0 0 47.122 47.121"><defs><style>.a{fill:#6e6e6e;}</style></defs><g transform="translate(-974.878 -27.301)"><path class="a" d="M23.561,0A23.561,23.561,0,1,0,47.122,23.561,23.588,23.588,0,0,0,23.561,0Zm0,44.021a20.46,20.46,0,1,1,20.46-20.46A20.483,20.483,0,0,1,23.561,44.021Z" transform="translate(974.878 27.3)"/><path class="a" d="M81.327,43.739v-8.8A4.46,4.46,0,0,1,83.5,36.669a1.55,1.55,0,1,0,2.59-1.705,7.547,7.547,0,0,0-4.765-3.244V29.256a1.55,1.55,0,1,0-3.1,0v2.458a7.563,7.563,0,0,0,0,14.807v8.8a4.46,4.46,0,0,1-2.175-1.732,1.55,1.55,0,1,0-2.59,1.705,7.547,7.547,0,0,0,4.765,3.244V61a1.55,1.55,0,1,0,3.1,0V58.546a7.563,7.563,0,0,0,0-14.807ZM75.31,39.118a4.465,4.465,0,0,1,2.917-4.18V43.3A4.465,4.465,0,0,1,75.31,39.118Zm6.017,16.205V46.963a4.454,4.454,0,0,1,0,8.361Z" transform="translate(918.662 5.731)"/></g></svg>