<svg xmlns="http://www.w3.org/2000/svg" width="47.422" height="47.422" viewBox="0 0 47.422 47.422"><defs><style>.a{fill:#6e6e6e;}</style></defs><g transform="translate(-719.236 -27)"><path class="a" d="M141.146,213.256a4.21,4.21,0,1,0,0,5.954A4.214,4.214,0,0,0,141.146,213.256Zm-2.129,3.824a1.2,1.2,0,1,1,0-1.695A1.19,1.19,0,0,1,139.016,217.08Z" transform="translate(597.684 -165.387)"/><path class="a" d="M294.508,210.527a4.21,4.21,0,1,0,1.233,2.977A4.215,4.215,0,0,0,294.508,210.527Zm-2.129,3.824a1.2,1.2,0,1,1,.351-.847A1.2,1.2,0,0,1,292.378,214.352Z" transform="translate(458.527 -162.911)"/><rect class="a" width="3.011" height="20.162" transform="translate(740.381 40.845) rotate(-6.09)"/><path class="a" d="M43.278,16.867A10.092,10.092,0,0,0,30.556,4.145L26.412,0,0,26.411l4.145,4.145A10.091,10.091,0,0,0,16.868,43.277l4.145,4.145,26.41-26.411Zm-22.266,26.3-3.439-3.439-.946.422A7.079,7.079,0,0,1,7.276,30.8l.422-.946L4.26,26.41,26.412,4.259,29.85,7.7l.946-.422a7.079,7.079,0,0,1,9.351,9.351l-.423.946,3.439,3.439Z" transform="translate(719.235 27)"/></g></svg>