<svg xmlns="http://www.w3.org/2000/svg" width="66" height="77" viewBox="0 0 66 77"><defs><style>.a{fill:#6e6e6e;}</style></defs><g transform="translate(-692.986 -246)"><g transform="translate(692.986 257)"><g transform="translate(17.268 27.331)"><path class="a" d="M143.961,213.738a5.859,5.859,0,1,0,0,8.286A5.865,5.865,0,0,0,143.961,213.738ZM141,219.061a1.667,1.667,0,1,1,0-2.359A1.657,1.657,0,0,1,141,219.061Z" transform="translate(-133.959 -212.025)"/></g><g transform="translate(37.037 26.98)"><path class="a" d="M297.323,211.01a5.859,5.859,0,1,0,1.716,4.143A5.866,5.866,0,0,0,297.323,211.01Zm-2.963,5.322a1.668,1.668,0,1,1,.489-1.179A1.67,1.67,0,0,1,294.359,216.332Z" transform="translate(-287.321 -209.296)"/></g><g transform="translate(29.429 18.825)"><g transform="translate(0 0)"><rect class="a" width="4.191" height="28.061" transform="translate(0 0.445) rotate(-6.09)"/></g></g><g transform="translate(0)"><path class="a" d="M60.232,23.474A14.045,14.045,0,0,0,42.526,5.768L36.758,0,0,36.757l5.768,5.768A14.045,14.045,0,0,0,23.475,60.231L29.244,66,66,29.243Zm-30.989,36.6-4.786-4.786-1.317.588A9.853,9.853,0,0,1,10.126,42.86l.588-1.317L5.928,36.757l30.83-30.83,4.786,4.786,1.317-.588A9.853,9.853,0,0,1,55.876,23.14l-.588,1.317,4.786,4.786Z" transform="translate(-0.001)"/></g></g><g transform="translate(642.726 246)"><g transform="translate(50.414 0)"><path class="a" d="M70.133.067a.878.878,0,0,0-.958.189L66.9,2.531a9.341,9.341,0,0,0-12.071.949l-.93.93A1.831,1.831,0,0,0,56.487,7l.93-.93a5.678,5.678,0,0,1,6.844-.9L62.219,7.212a.88.88,0,0,0,.622,1.5H69.8a.88.88,0,0,0,.88-.879V.88A.877.877,0,0,0,70.133.067Z" transform="translate(-53.363 0)"/></g><g transform="translate(50.274 13.286)"><path class="a" d="M64.462,295.447l-.93.93a5.663,5.663,0,0,1-6.846.9l2.043-2.044a.878.878,0,0,0-.622-1.5H51.154a.879.879,0,0,0-.88.879v6.955a.879.879,0,0,0,1.5.621l2.271-2.271a9.316,9.316,0,0,0,12.075-.952l.93-.929a1.831,1.831,0,1,0-2.589-2.589Z" transform="translate(-50.274 -293.732)"/></g></g></g></svg>